<?xml version="1.0" encoding="UTF-8" standalone="no"?><!DOCTYPE svg PUBLIC "-//W3C//DTD SVG 1.1//EN" "http://www.w3.org/Graphics/SVG/1.1/DTD/svg11.dtd"><!-- Generated by graphviz version 2.40.1 (20161225.0304)
 --><!-- Title: regex Pages: 1 --><svg xmlns="http://www.w3.org/2000/svg" xmlns:xlink="http://www.w3.org/1999/xlink" width="341pt" height="111pt" viewBox="0.00 0.00 340.54 111.00">
<g id="graph0" class="graph" transform="scale(1 1) rotate(0) translate(4 107)">
<title>regex</title>
<polygon fill="#ffffff" stroke="transparent" points="-4,4 -4,-107 336.5438,-107 336.5438,4 -4,4"/>
<!-- 0 -->
<g id="node1" class="node">
<title>0</title>
<polygon fill="none" stroke="#000000" points="142.9654,-63 106.9654,-63 106.9654,-27 142.9654,-27 142.9654,-63"/>
<text text-anchor="middle" x="124.9654" y="-40.8" font-family="Times,serif" font-size="14.00" fill="#000000">0</text>
</g>
<!-- 1 -->
<g id="node2" class="node">
<title>1</title>
<polygon fill="none" stroke="#000000" points="237.7546,-63 201.7546,-63 201.7546,-27 237.7546,-27 237.7546,-63"/>
<text text-anchor="middle" x="219.7546" y="-40.8" font-family="Times,serif" font-size="14.00" fill="#000000">1</text>
</g>
<!-- 0&#45;&gt;1 -->
<g id="edge2" class="edge">
<title>0-&gt;1</title>
<path fill="none" stroke="#000000" d="M143.2417,-45C156.8795,-45 175.7692,-45 191.3669,-45"/>
<polygon fill="#000000" stroke="#000000" points="191.5344,-48.5001 201.5344,-45 191.5344,-41.5001 191.5344,-48.5001"/>
<text text-anchor="middle" x="172.36" y="-49.2" font-family="Times,serif" font-size="14.00" fill="#000000">&lt;$&gt;</text>
</g>
<!-- 2 -->
<g id="node3" class="node">
<title>2</title>
<ellipse fill="none" stroke="#000000" cx="314.5438" cy="-85" rx="18" ry="18"/>
<text text-anchor="middle" x="314.5438" y="-80.8" font-family="Times,serif" font-size="14.00" fill="#000000">2</text>
</g>
<!-- 1&#45;&gt;2 -->
<g id="edge3" class="edge">
<title>1-&gt;2</title>
<path fill="none" stroke="#000000" d="M238.0309,-52.7124C252.3765,-58.7661 272.5332,-67.272 288.5568,-74.0338"/>
<polygon fill="#000000" stroke="#000000" points="287.3367,-77.3177 297.9107,-77.981 290.0582,-70.8684 287.3367,-77.3177"/>
<text text-anchor="middle" x="267.1492" y="-74.2" font-family="Times,serif" font-size="14.00" fill="#000000">'b'</text>
</g>
<!-- 3 -->
<g id="node4" class="node">
<title>3</title>
<polygon fill="none" stroke="#000000" points="332.5438,-36 296.5438,-36 296.5438,0 332.5438,0 332.5438,-36"/>
<text text-anchor="middle" x="314.5438" y="-13.8" font-family="Times,serif" font-size="14.00" fill="#000000">3</text>
</g>
<!-- 1&#45;&gt;3 -->
<g id="edge4" class="edge">
<title>1-&gt;3</title>
<path fill="none" stroke="#000000" d="M238.0309,-39.7941C251.7999,-35.8721 270.9221,-30.4253 286.6051,-25.9581"/>
<polygon fill="#000000" stroke="#000000" points="287.665,-29.2955 296.3236,-23.1899 285.7473,-22.5633 287.665,-29.2955"/>
<text text-anchor="middle" x="267.1492" y="-39.2" font-family="Times,serif" font-size="14.00" fill="#000000">&lt;^&gt;</text>
</g>
<!-- 3&#45;&gt;1 -->
<g id="edge5" class="edge">
<title>3-&gt;1</title>
<path fill="none" stroke="#000000" d="M296.4518,-9.9619C284.5071,-5.8503 268.7259,-2.7434 255.7546,-8.2 249.6994,-10.7472 244.1537,-14.8652 239.324,-19.4421"/>
<polygon fill="#000000" stroke="#000000" points="236.6559,-17.1703 232.3536,-26.8523 241.7547,-21.9665 236.6559,-17.1703"/>
<text text-anchor="middle" x="267.1492" y="-13.2" font-family="Times,serif" font-size="14.00" fill="#000000">&lt;$&gt;</text>
</g>
<!-- &#39;a&#39;~&#39;b&#39; -->
<g id="node5" class="node">
<title>'a'~'b'</title>
<text text-anchor="middle" x="27.7148" y="-40.8" font-family="Times,serif" font-size="14.00" fill="#000000">'a'~'b'</text>
</g>
<!-- &#39;a&#39;~&#39;b&#39;&#45;&gt;0 -->
<g id="edge1" class="edge">
<title>'a'~'b'-&gt;0</title>
<path fill="none" stroke="#000000" d="M55.5829,-45C68.4747,-45 83.763,-45 96.7031,-45"/>
<polygon fill="#000000" stroke="#000000" points="96.9164,-48.5001 106.9163,-45 96.9163,-41.5001 96.9164,-48.5001"/>
<text text-anchor="middle" x="81.1975" y="-49.2" font-family="Times,serif" font-size="14.00" fill="#000000">'a'</text>
</g>
</g>
</svg>