<?xml version="1.0" encoding="UTF-8" standalone="no"?><!DOCTYPE svg PUBLIC "-//W3C//DTD SVG 1.1//EN" "http://www.w3.org/Graphics/SVG/1.1/DTD/svg11.dtd"><!-- Generated by graphviz version 2.40.1 (20161225.0304)
 --><!-- Title: regex Pages: 1 --><svg xmlns="http://www.w3.org/2000/svg" xmlns:xlink="http://www.w3.org/1999/xlink" width="245pt" height="98pt" viewBox="0.00 0.00 245.11 98.00">
<g id="graph0" class="graph" transform="scale(1 1) rotate(0) translate(4 94)">
<title>regex</title>
<polygon fill="#ffffff" stroke="transparent" points="-4,4 -4,-94 241.1104,-94 241.1104,4 -4,4"/>
<!-- 0 -->
<g id="node1" class="node">
<title>0</title>
<polygon fill="none" stroke="#000000" points="148.7892,-63 112.7892,-63 112.7892,-27 148.7892,-27 148.7892,-63"/>
<text text-anchor="middle" x="130.7892" y="-40.8" font-family="Times,serif" font-size="14.00" fill="#000000">0</text>
</g>
<!-- 1 -->
<g id="node2" class="node">
<title>1</title>
<ellipse fill="none" stroke="#000000" cx="219.1104" cy="-72" rx="18" ry="18"/>
<text text-anchor="middle" x="219.1104" y="-67.8" font-family="Times,serif" font-size="14.00" fill="#000000">1</text>
</g>
<!-- 0&#45;&gt;1 -->
<g id="edge2" class="edge">
<title>0-&gt;1</title>
<path fill="none" stroke="#000000" d="M149.0894,-50.5944C161.5309,-54.3978 178.2007,-59.4938 192.1542,-63.7594"/>
<polygon fill="#000000" stroke="#000000" points="191.1487,-67.1119 201.7351,-66.6883 193.1952,-60.4177 191.1487,-67.1119"/>
<text text-anchor="middle" x="174.9498" y="-65.2" font-family="Times,serif" font-size="14.00" fill="#000000">'a'</text>
</g>
<!-- 2 -->
<g id="node3" class="node">
<title>2</title>
<ellipse fill="none" stroke="#000000" cx="219.1104" cy="-18" rx="18" ry="18"/>
<text text-anchor="middle" x="219.1104" y="-13.8" font-family="Times,serif" font-size="14.00" fill="#000000">2</text>
</g>
<!-- 0&#45;&gt;2 -->
<g id="edge3" class="edge">
<title>0-&gt;2</title>
<path fill="none" stroke="#000000" d="M149.0894,-39.4056C161.5309,-35.6022 178.2007,-30.5062 192.1542,-26.2406"/>
<polygon fill="#000000" stroke="#000000" points="193.1952,-29.5823 201.7351,-23.3117 191.1487,-22.8881 193.1952,-29.5823"/>
<text text-anchor="middle" x="174.9498" y="-38.2" font-family="Times,serif" font-size="14.00" fill="#000000">'b'</text>
</g>
<!-- &#39;a&#39;|&#39;b&#39; -->
<g id="node4" class="node">
<title>'a'|'b'</title>
<text text-anchor="middle" x="27" y="-40.8" font-family="Times,serif" font-size="14.00" fill="#000000">'a'|'b'</text>
</g>
<!-- &#39;a&#39;|&#39;b&#39;&#45;&gt;0 -->
<g id="edge1" class="edge">
<title>'a'|'b'-&gt;0</title>
<path fill="none" stroke="#000000" d="M54.2694,-45C69.0583,-45 87.3208,-45 102.2952,-45"/>
<polygon fill="#000000" stroke="#000000" points="102.5211,-48.5001 112.5211,-45 102.521,-41.5001 102.5211,-48.5001"/>
<text text-anchor="middle" x="83.3946" y="-49.2" font-family="Times,serif" font-size="14.00" fill="#000000">&lt;$&gt;</text>
</g>
</g>
</svg>