<?xml version="1.0" encoding="UTF-8" standalone="no"?><!DOCTYPE svg PUBLIC "-//W3C//DTD SVG 1.1//EN" "http://www.w3.org/Graphics/SVG/1.1/DTD/svg11.dtd"><!-- Generated by graphviz version 2.40.1 (20161225.0304)
 --><!-- Title: regex Pages: 1 --><svg xmlns="http://www.w3.org/2000/svg" xmlns:xlink="http://www.w3.org/1999/xlink" width="258pt" height="111pt" viewBox="0.00 0.00 257.54 111.00">
<g id="graph0" class="graph" transform="scale(1 1) rotate(0) translate(4 107)">
<title>regex</title>
<polygon fill="#ffffff" stroke="transparent" points="-4,4 -4,-107 253.5396,-107 253.5396,4 -4,4"/>
<!-- 0 -->
<g id="node1" class="node">
<title>0</title>
<polygon fill="none" stroke="#000000" points="148.7892,-76 112.7892,-76 112.7892,-40 148.7892,-40 148.7892,-76"/>
<text text-anchor="middle" x="130.7892" y="-53.8" font-family="Times,serif" font-size="14.00" fill="#000000">0</text>
</g>
<!-- 1 -->
<g id="node2" class="node">
<title>1</title>
<ellipse fill="none" stroke="#000000" cx="231.5396" cy="-85" rx="18" ry="18"/>
<text text-anchor="middle" x="231.5396" y="-80.8" font-family="Times,serif" font-size="14.00" fill="#000000">1</text>
</g>
<!-- 0&#45;&gt;1 -->
<g id="edge2" class="edge">
<title>0-&gt;1</title>
<path fill="none" stroke="#000000" d="M148.9928,-68.5391C154.5502,-71.3582 160.7828,-74.1362 166.7892,-76 178.4909,-79.631 191.8377,-81.8001 203.3614,-83.0946"/>
<polygon fill="#000000" stroke="#000000" points="203.043,-86.58 213.3323,-84.0543 203.7137,-79.6122 203.043,-86.58"/>
<text text-anchor="middle" x="181.1644" y="-86.2" font-family="Times,serif" font-size="14.00" fill="#000000">'abc'</text>
</g>
<!-- 2 -->
<g id="node3" class="node">
<title>2</title>
<ellipse fill="none" stroke="#000000" cx="231.5396" cy="-18" rx="18" ry="18"/>
<text text-anchor="middle" x="231.5396" y="-13.8" font-family="Times,serif" font-size="14.00" fill="#000000">2</text>
</g>
<!-- 0&#45;&gt;2 -->
<g id="edge3" class="edge">
<title>0-&gt;2</title>
<path fill="none" stroke="#000000" d="M148.865,-42.1397C154.3199,-38.0407 160.5299,-33.9992 166.7892,-31.2 178.2556,-26.0723 191.7574,-22.9162 203.4563,-20.9832"/>
<polygon fill="#000000" stroke="#000000" points="204.1817,-24.4151 213.5833,-19.5304 203.1876,-17.486 204.1817,-24.4151"/>
<text text-anchor="middle" x="181.1644" y="-36.2" font-family="Times,serif" font-size="14.00" fill="#000000">&lt;$&gt;</text>
</g>
<!-- 1&#45;&gt;0 -->
<g id="edge4" class="edge">
<title>1-&gt;0</title>
<path fill="none" stroke="#000000" d="M219.61,-71.4985C213.1824,-65.2535 204.6997,-58.4994 195.5396,-55.2 184.0305,-51.0545 170.6188,-50.9351 158.9961,-52.1697"/>
<polygon fill="#000000" stroke="#000000" points="158.3356,-48.7285 148.9312,-53.6076 159.3257,-55.6581 158.3356,-48.7285"/>
<text text-anchor="middle" x="181.1644" y="-60.2" font-family="Times,serif" font-size="14.00" fill="#000000">&lt;$&gt;</text>
</g>
<!-- &#39;abc&#39;* -->
<g id="node4" class="node">
<title>'abc'*</title>
<text text-anchor="middle" x="27" y="-53.8" font-family="Times,serif" font-size="14.00" fill="#000000">'abc'*</text>
</g>
<!-- &#39;abc&#39;*&#45;&gt;0 -->
<g id="edge1" class="edge">
<title>'abc'*-&gt;0</title>
<path fill="none" stroke="#000000" d="M54.2694,-58C69.0583,-58 87.3208,-58 102.2952,-58"/>
<polygon fill="#000000" stroke="#000000" points="102.5211,-61.5001 112.5211,-58 102.521,-54.5001 102.5211,-61.5001"/>
<text text-anchor="middle" x="83.3946" y="-62.2" font-family="Times,serif" font-size="14.00" fill="#000000">&lt;$&gt;</text>
</g>
</g>
</svg>