<?xml version="1.0" encoding="UTF-8" standalone="no"?><!DOCTYPE svg PUBLIC "-//W3C//DTD SVG 1.1//EN" "http://www.w3.org/Graphics/SVG/1.1/DTD/svg11.dtd"><!-- Generated by graphviz version 2.40.1 (20161225.0304)
 --><!-- Title: regex Pages: 1 --><svg xmlns="http://www.w3.org/2000/svg" xmlns:xlink="http://www.w3.org/1999/xlink" width="258pt" height="98pt" viewBox="0.00 0.00 257.54 98.00">
<g id="graph0" class="graph" transform="scale(1 1) rotate(0) translate(4 94)">
<title>regex</title>
<polygon fill="#ffffff" stroke="transparent" points="-4,4 -4,-94 253.5396,-94 253.5396,4 -4,4"/>
<!-- 0 -->
<g id="node1" class="node">
<title>0</title>
<polygon fill="none" stroke="#000000" points="148.7892,-63 112.7892,-63 112.7892,-27 148.7892,-27 148.7892,-63"/>
<text text-anchor="middle" x="130.7892" y="-40.8" font-family="Times,serif" font-size="14.00" fill="#000000">0</text>
</g>
<!-- 1 -->
<g id="node2" class="node">
<title>1</title>
<ellipse fill="none" stroke="#000000" cx="231.5396" cy="-72" rx="18" ry="18"/>
<text text-anchor="middle" x="231.5396" y="-67.8" font-family="Times,serif" font-size="14.00" fill="#000000">1</text>
</g>
<!-- 0&#45;&gt;1 -->
<g id="edge2" class="edge">
<title>0-&gt;1</title>
<path fill="none" stroke="#000000" d="M148.8014,-49.8271C164.2258,-53.9607 186.6703,-59.9755 204.2921,-64.698"/>
<polygon fill="#000000" stroke="#000000" points="203.4556,-68.0972 214.0208,-67.3052 205.2677,-61.3358 203.4556,-68.0972"/>
<text text-anchor="middle" x="181.1644" y="-66.2" font-family="Times,serif" font-size="14.00" fill="#000000">'abc'</text>
</g>
<!-- 2 -->
<g id="node3" class="node">
<title>2</title>
<ellipse fill="none" stroke="#000000" cx="231.5396" cy="-18" rx="18" ry="18"/>
<text text-anchor="middle" x="231.5396" y="-13.8" font-family="Times,serif" font-size="14.00" fill="#000000">2</text>
</g>
<!-- 0&#45;&gt;2 -->
<g id="edge3" class="edge">
<title>0-&gt;2</title>
<path fill="none" stroke="#000000" d="M149.0974,-39.9927C154.7665,-38.4485 161.0344,-36.7476 166.7892,-35.2 179.0007,-31.916 192.5182,-28.3192 204.0301,-25.2676"/>
<polygon fill="#000000" stroke="#000000" points="205.1723,-28.5859 213.9434,-22.643 203.3806,-21.819 205.1723,-28.5859"/>
<text text-anchor="middle" x="181.1644" y="-40.2" font-family="Times,serif" font-size="14.00" fill="#000000">&lt;$&gt;</text>
</g>
<!-- &#39;abc&#39;? -->
<g id="node4" class="node">
<title>'abc'?</title>
<text text-anchor="middle" x="27" y="-40.8" font-family="Times,serif" font-size="14.00" fill="#000000">'abc'?</text>
</g>
<!-- &#39;abc&#39;?&#45;&gt;0 -->
<g id="edge1" class="edge">
<title>'abc'?-&gt;0</title>
<path fill="none" stroke="#000000" d="M54.2694,-45C69.0583,-45 87.3208,-45 102.2952,-45"/>
<polygon fill="#000000" stroke="#000000" points="102.5211,-48.5001 112.5211,-45 102.521,-41.5001 102.5211,-48.5001"/>
<text text-anchor="middle" x="83.3946" y="-49.2" font-family="Times,serif" font-size="14.00" fill="#000000">&lt;$&gt;</text>
</g>
</g>
</svg>