<?xml version="1.0" encoding="UTF-8" standalone="no"?><!DOCTYPE svg PUBLIC "-//W3C//DTD SVG 1.1//EN" "http://www.w3.org/Graphics/SVG/1.1/DTD/svg11.dtd"><!-- Generated by graphviz version 2.40.1 (20161225.0304)
 --><!-- Title: regex Pages: 1 --><svg xmlns="http://www.w3.org/2000/svg" xmlns:xlink="http://www.w3.org/1999/xlink" width="264pt" height="49pt" viewBox="0.00 0.00 263.50 49.28">
<g id="graph0" class="graph" transform="scale(1 1) rotate(0) translate(4 45.2819)">
<title>regex</title>
<polygon fill="#ffffff" stroke="transparent" points="-4,4 -4,-45.2819 259.5008,-45.2819 259.5008,4 -4,4"/>
<!-- 0 -->
<g id="node1" class="node">
<title>0</title>
<polygon fill="none" stroke="#000000" points="154.7504,-41.2819 118.7504,-41.2819 118.7504,-5.2819 154.7504,-5.2819 154.7504,-41.2819"/>
<text text-anchor="middle" x="136.7504" y="-19.0819" font-family="Times,serif" font-size="14.00" fill="#000000">0</text>
</g>
<!-- 1 -->
<g id="node2" class="node">
<title>1</title>
<ellipse fill="none" stroke="#000000" cx="237.5008" cy="-23.2819" rx="18" ry="18"/>
<text text-anchor="middle" x="237.5008" y="-19.0819" font-family="Times,serif" font-size="14.00" fill="#000000">1</text>
</g>
<!-- 0&#45;&gt;1 -->
<g id="edge2" class="edge">
<title>0-&gt;1</title>
<path fill="none" stroke="#000000" d="M154.7626,-23.2819C169.8554,-23.2819 191.6696,-23.2819 209.1101,-23.2819"/>
<polygon fill="#000000" stroke="#000000" points="209.3049,-26.782 219.3049,-23.2819 209.3049,-19.782 209.3049,-26.782"/>
<text text-anchor="middle" x="187.1256" y="-27.4819" font-family="Times,serif" font-size="14.00" fill="#000000">&lt;$&gt;</text>
</g>
<!-- 1&#45;&gt;0 -->
<g id="edge3" class="edge">
<title>1-&gt;0</title>
<path fill="none" stroke="#000000" d="M222.8663,-12.4885C216.6143,-8.5181 209.0305,-4.5007 201.5008,-2.4819 189.1588,.8273 185.0924,.8273 172.7504,-2.4819 169.7786,-3.2787 166.7984,-4.3868 163.8949,-5.6804"/>
<polygon fill="#000000" stroke="#000000" points="162.2589,-2.5862 154.9864,-10.2909 165.4763,-8.803 162.2589,-2.5862"/>
<text text-anchor="middle" x="187.1256" y="-7.4819" font-family="Times,serif" font-size="14.00" fill="#000000">'abc'</text>
</g>
<!-- &#39;abc&#39;+ -->
<g id="node3" class="node">
<title>'abc'+</title>
<text text-anchor="middle" x="27" y="-19.0819" font-family="Times,serif" font-size="14.00" fill="#000000">'abc'+</text>
</g>
<!-- &#39;abc&#39;+&#45;&gt;0 -->
<g id="edge1" class="edge">
<title>'abc'+-&gt;0</title>
<path fill="none" stroke="#000000" d="M54.1293,-23.2819C70.5838,-23.2819 91.5548,-23.2819 108.2514,-23.2819"/>
<polygon fill="#000000" stroke="#000000" points="108.5158,-26.782 118.5157,-23.2819 108.5157,-19.782 108.5158,-26.782"/>
<text text-anchor="middle" x="86.3752" y="-27.4819" font-family="Times,serif" font-size="14.00" fill="#000000">'abc'</text>
</g>
</g>
</svg>